# xmcd
#
# Track frame offsets: 
#        150
#        11010
#        22464
#        38678
#        52339
#        64643
#        77606
#        90676
#        100365
#        111413
#        122465
#        133357
#        144445
#        160679
#        169766
#        181022
#        195325
#        207485
#        219022
#        233776
#        248170
#        259574
#        271066
#        287044
#        297145
#
# Disc length: 4124 seconds
#
# Revision: 0
# Processed by: cddbd v1.5.2PL0 Copyright (c) Steve Scherf et al.
# Submitted via: ExactAudioCopy v0.99pb4
#
DISCID=65101a19
DTITLE=Various Artist - Soulfuls Sounds From Soulville
DYEAR=1969
DGENRE=Soul
TTITLE0=Soulville Allstars - Won't You Please Be My Girl
TTITLE1=Richardson, Donald Lee - I've Learned My Lesson
TTITLE2=Beverly Hills - I Don't Care Anymore
TTITLE3=Continental Four - The Way I Love You
TTITLE4=Ray Gant and The Arabian Knights - Chattanooga Walk
TTITLE5=Bobby Fulton - It's Good To BE Lonely Sometimes
TTITLE6=Millie McLain - Caught Up
TTITLE7=Lynn Martini and The Jolly Jax - Now
TTITLE8=Hank Sample - So In Love With You
TTITLE9=The Master's Men - Why Do You Treat Me So Bad
TTITLE10=Watson and The Sherlocks - Standing On The Corner
TTITLE11=Donald Lee and The Executives - Bring Your Love Here To Me
TTITLE12=Ray Gant and The Arabian Knights - Don't Leave Me Baby
TTITLE13=Soulville Allstars - I'm Goonna Get To You
TTITLE14=Bobby Fulton - It's All Over
TTITLE15=Hank Sample - You're Being Unfair To Me
TTITLE16=Richardson, Donald Lee - You Got Me In The Palm Of Your Hand
TTITLE17=Watson and The Sherlocks - Funky Walk
TTITLE18=Ray Gant and The Arabian Knights - I Need A True Love
TTITLE19=Wee Willie Mason - Funky Funky (Hot Pants)
TTITLE20=The Master's Men - Brighter Day
TTITLE21=Sensational Cymbals - When Will It End
TTITLE22=The Manigault Special - Be What You Are
TTITLE23=Cha Cha Hogan - Grit Gitter
TTITLE24=Wee Willie and B. Clark - There She Blows
EXTD=
EXTT0=
EXTT1=
EXTT2=
EXTT3=
EXTT4=
EXTT5=
EXTT6=
EXTT7=
EXTT8=
EXTT9=
EXTT10=
EXTT11=
EXTT12=
EXTT13=
EXTT14=
EXTT15=
EXTT16=
EXTT17=
EXTT18=
EXTT19=
EXTT20=
EXTT21=
EXTT22=
EXTT23=
EXTT24=
PLAYORDER=
